<mxfile host="app.diagrams.net" modified="2024-03-20T13:39:10.577Z" agent="Mozilla/5.0 (Windows NT 10.0; Win64; x64) AppleWebKit/537.36 (KHTML, like Gecko) Chrome/122.0.0.0 Safari/537.36 Edg/122.0.0.0" version="22.1.21" etag="_PUldcf5Z8TIUBkqIxHs" type="device">
  <diagram id="2Pl5HlIxxQb_QpP7JWfI" name="第 1 页">
    <mxGraphModel dx="1434" dy="827" grid="1" gridSize="10" guides="1" tooltips="1" connect="1" arrows="1" fold="1" page="1" pageScale="1" pageWidth="1169" pageHeight="827" math="0" shadow="0">
      <root>
        <mxCell id="0" />
        <mxCell id="1" parent="0" />
        <mxCell id="sXxsu7FE6Y24Ids7-lZW-1" value="&lt;div style=&quot;&quot;&gt;&lt;span style=&quot;background-color: initial;&quot;&gt;&lt;font style=&quot;font-size: 36px;&quot;&gt;A&amp;nbsp; &amp;nbsp; &amp;nbsp; &amp;nbsp; &amp;nbsp; &amp;nbsp; &amp;nbsp; &amp;nbsp; &amp;nbsp; &amp;nbsp; &amp;nbsp; &amp;nbsp; &amp;nbsp; &amp;nbsp; &amp;nbsp; &amp;nbsp; &amp;nbsp; &amp;nbsp; &amp;nbsp; &amp;nbsp; &amp;nbsp; &amp;nbsp; &amp;nbsp; &amp;nbsp; &amp;nbsp; &amp;nbsp; &amp;nbsp; &amp;nbsp; &amp;nbsp; &amp;nbsp; &amp;nbsp; &amp;nbsp; &amp;nbsp; &amp;nbsp; &amp;nbsp; &amp;nbsp; &amp;nbsp; &amp;nbsp; &amp;nbsp; &amp;nbsp; &amp;nbsp; &amp;nbsp; &amp;nbsp; &amp;nbsp; B&lt;/font&gt;&lt;/span&gt;&lt;/div&gt;" style="rounded=0;whiteSpace=wrap;html=1;align=center;" vertex="1" parent="1">
          <mxGeometry x="462.5" y="284" width="950" height="60" as="geometry" />
        </mxCell>
        <mxCell id="sXxsu7FE6Y24Ids7-lZW-3" value="" style="shape=crossbar;whiteSpace=wrap;html=1;rounded=1;" vertex="1" parent="1">
          <mxGeometry x="462.5" y="244" width="950" height="20" as="geometry" />
        </mxCell>
        <mxCell id="sXxsu7FE6Y24Ids7-lZW-4" value="S&lt;font style=&quot;font-size: 24px;&quot;&gt;&lt;sub&gt;AB&lt;/sub&gt;&lt;/font&gt;全程 = 1900米" style="text;strokeColor=none;fillColor=none;html=1;fontSize=24;fontStyle=1;verticalAlign=middle;align=center;" vertex="1" parent="1">
          <mxGeometry x="792.5" y="184" width="300" height="40" as="geometry" />
        </mxCell>
        <mxCell id="sXxsu7FE6Y24Ids7-lZW-5" value="" style="shape=singleArrow;whiteSpace=wrap;html=1;" vertex="1" parent="1">
          <mxGeometry x="462.5" y="388" width="400" height="60" as="geometry" />
        </mxCell>
        <mxCell id="sXxsu7FE6Y24Ids7-lZW-6" value="" style="shape=singleArrow;direction=west;whiteSpace=wrap;html=1;fillColor=#000000;" vertex="1" parent="1">
          <mxGeometry x="862.5" y="388" width="550" height="60" as="geometry" />
        </mxCell>
        <mxCell id="sXxsu7FE6Y24Ids7-lZW-7" value="" style="shape=actor;whiteSpace=wrap;html=1;" vertex="1" parent="1">
          <mxGeometry x="402.5" y="344" width="40" height="60" as="geometry" />
        </mxCell>
        <mxCell id="sXxsu7FE6Y24Ids7-lZW-8" value="" style="shape=actor;whiteSpace=wrap;html=1;fillColor=#000000;" vertex="1" parent="1">
          <mxGeometry x="1442.5" y="344" width="40" height="60" as="geometry" />
        </mxCell>
        <mxCell id="sXxsu7FE6Y24Ids7-lZW-9" value="甲" style="text;strokeColor=none;fillColor=none;html=1;fontSize=24;fontStyle=1;verticalAlign=middle;align=center;" vertex="1" parent="1">
          <mxGeometry x="390" y="294" width="65" height="40" as="geometry" />
        </mxCell>
        <mxCell id="sXxsu7FE6Y24Ids7-lZW-10" value="乙" style="text;strokeColor=none;fillColor=none;html=1;fontSize=24;fontStyle=1;verticalAlign=middle;align=center;" vertex="1" parent="1">
          <mxGeometry x="1430" y="294" width="65" height="40" as="geometry" />
        </mxCell>
        <mxCell id="sXxsu7FE6Y24Ids7-lZW-11" value="" style="shape=singleArrow;whiteSpace=wrap;html=1;" vertex="1" parent="1">
          <mxGeometry x="862.5" y="484" width="400" height="60" as="geometry" />
        </mxCell>
        <mxCell id="sXxsu7FE6Y24Ids7-lZW-12" value="" style="shape=singleArrow;whiteSpace=wrap;html=1;" vertex="1" parent="1">
          <mxGeometry x="1262.5" y="484" width="400" height="60" as="geometry" />
        </mxCell>
        <mxCell id="sXxsu7FE6Y24Ids7-lZW-13" value="" style="shape=singleArrow;whiteSpace=wrap;html=1;flipH=1;" vertex="1" parent="1">
          <mxGeometry x="1162.5" y="574" width="250" height="60" as="geometry" />
        </mxCell>
        <mxCell id="sXxsu7FE6Y24Ids7-lZW-16" value="800米" style="text;strokeColor=none;fillColor=none;html=1;fontSize=24;fontStyle=1;verticalAlign=middle;align=center;" vertex="1" parent="1">
          <mxGeometry x="612.5" y="364" width="100" height="40" as="geometry" />
        </mxCell>
        <mxCell id="sXxsu7FE6Y24Ids7-lZW-18" value="" style="shape=crossbar;whiteSpace=wrap;html=1;rounded=1;direction=south;" vertex="1" parent="1">
          <mxGeometry x="1402.5" y="204" width="20" height="440" as="geometry" />
        </mxCell>
        <mxCell id="sXxsu7FE6Y24Ids7-lZW-19" value="800米" style="text;strokeColor=none;fillColor=none;html=1;fontSize=24;fontStyle=1;verticalAlign=middle;align=center;" vertex="1" parent="1">
          <mxGeometry x="1012.5" y="464" width="100" height="40" as="geometry" />
        </mxCell>
        <mxCell id="sXxsu7FE6Y24Ids7-lZW-20" value="300米" style="text;strokeColor=none;fillColor=none;html=1;fontSize=24;fontStyle=1;verticalAlign=middle;align=center;" vertex="1" parent="1">
          <mxGeometry x="1287.5" y="464" width="100" height="40" as="geometry" />
        </mxCell>
        <mxCell id="sXxsu7FE6Y24Ids7-lZW-21" value="500米" style="text;strokeColor=none;fillColor=none;html=1;fontSize=24;fontStyle=1;verticalAlign=middle;align=center;" vertex="1" parent="1">
          <mxGeometry x="1457.5" y="464" width="100" height="40" as="geometry" />
        </mxCell>
        <mxCell id="sXxsu7FE6Y24Ids7-lZW-22" value="500米" style="text;strokeColor=none;fillColor=none;html=1;fontSize=24;fontStyle=1;verticalAlign=middle;align=center;" vertex="1" parent="1">
          <mxGeometry x="1257.5" y="554" width="100" height="40" as="geometry" />
        </mxCell>
        <mxCell id="sXxsu7FE6Y24Ids7-lZW-23" value="1100米" style="text;strokeColor=none;fillColor=none;html=1;fontSize=24;fontStyle=1;verticalAlign=middle;align=center;" vertex="1" parent="1">
          <mxGeometry x="1137.5" y="364" width="100" height="40" as="geometry" />
        </mxCell>
        <mxCell id="sXxsu7FE6Y24Ids7-lZW-26" value="" style="shape=singleArrow;direction=west;whiteSpace=wrap;html=1;fillColor=#000000;" vertex="1" parent="1">
          <mxGeometry x="312.5" y="484" width="550" height="60" as="geometry" />
        </mxCell>
        <mxCell id="sXxsu7FE6Y24Ids7-lZW-29" value="" style="shape=crossbar;whiteSpace=wrap;html=1;rounded=1;direction=south;" vertex="1" parent="1">
          <mxGeometry x="452" y="204" width="20" height="440" as="geometry" />
        </mxCell>
        <mxCell id="sXxsu7FE6Y24Ids7-lZW-30" value="800米" style="text;strokeColor=none;fillColor=none;html=1;fontSize=24;fontStyle=1;verticalAlign=middle;align=center;" vertex="1" parent="1">
          <mxGeometry x="612.5" y="464" width="100" height="40" as="geometry" />
        </mxCell>
        <mxCell id="sXxsu7FE6Y24Ids7-lZW-31" value="" style="shape=singleArrow;direction=west;whiteSpace=wrap;html=1;fillColor=#000000;flipH=1;" vertex="1" parent="1">
          <mxGeometry x="612.5" y="574" width="550" height="60" as="geometry" />
        </mxCell>
        <mxCell id="sXxsu7FE6Y24Ids7-lZW-32" value="" style="shape=singleArrow;direction=west;whiteSpace=wrap;html=1;fillColor=#000000;flipH=1;" vertex="1" parent="1">
          <mxGeometry x="462" y="574" width="150" height="60" as="geometry" />
        </mxCell>
        <mxCell id="sXxsu7FE6Y24Ids7-lZW-33" value="300米" style="text;strokeColor=none;fillColor=none;html=1;fontSize=24;fontStyle=1;verticalAlign=middle;align=center;" vertex="1" parent="1">
          <mxGeometry x="352" y="448" width="100" height="40" as="geometry" />
        </mxCell>
        <mxCell id="sXxsu7FE6Y24Ids7-lZW-34" value="300米" style="text;strokeColor=none;fillColor=none;html=1;fontSize=24;fontStyle=1;verticalAlign=middle;align=center;" vertex="1" parent="1">
          <mxGeometry x="472" y="554" width="100" height="40" as="geometry" />
        </mxCell>
        <mxCell id="sXxsu7FE6Y24Ids7-lZW-35" value="1100米" style="text;strokeColor=none;fillColor=none;html=1;fontSize=24;fontStyle=1;verticalAlign=middle;align=center;" vertex="1" parent="1">
          <mxGeometry x="780" y="554" width="100" height="40" as="geometry" />
        </mxCell>
        <mxCell id="sXxsu7FE6Y24Ids7-lZW-36" value="甲乙二人分别从A、B两地出发相向而行，到达目的地后马上掉头回到出发地，他们第一次相遇距A地800米，第二次距B地500米，A、B两地相距多少米？" style="text;strokeColor=none;fillColor=none;html=1;fontSize=24;fontStyle=1;verticalAlign=middle;align=left;whiteSpace=wrap;" vertex="1" parent="1">
          <mxGeometry x="492.5" y="70" width="900" height="80" as="geometry" />
        </mxCell>
      </root>
    </mxGraphModel>
  </diagram>
</mxfile>
